<svg width="167" height="35" viewBox="0 0 167 35" fill="none" xmlns="http://www.w3.org/2000/svg">
<path d="M15.0439 26.4619V28H3.98438V26.4619H15.0439ZM4.51172 6.67188V28H2.70996V6.67188H4.51172ZM20.7275 6.67188V28H18.9258V6.67188H20.7275ZM41.9092 17.8633V25.4512C41.665 25.8125 41.2451 26.2129 40.6494 26.6523C40.0537 27.0918 39.2529 27.4775 38.2471 27.8096C37.2412 28.1318 35.9912 28.293 34.4971 28.293C33.2471 28.293 32.0996 28.0684 31.0547 27.6191C30.0098 27.1699 29.1016 26.5205 28.3301 25.6709C27.5684 24.8115 26.9775 23.7812 26.5576 22.5801C26.1475 21.3789 25.9424 20.0312 25.9424 18.5371V15.959C25.9424 14.4941 26.1328 13.1758 26.5137 12.0039C26.8945 10.8223 27.4463 9.81152 28.1689 8.97168C28.8916 8.13184 29.7607 7.49219 30.7764 7.05273C31.8018 6.60352 32.9492 6.37891 34.2188 6.37891C35.8008 6.37891 37.1338 6.65234 38.2178 7.19922C39.3018 7.74609 40.1465 8.49805 40.752 9.45508C41.3672 10.4023 41.748 11.4766 41.8945 12.6777H40.0928C39.9561 11.8281 39.6729 11.0469 39.2432 10.334C38.8135 9.61133 38.1885 9.03027 37.3682 8.59082C36.5576 8.15137 35.5078 7.93164 34.2188 7.93164C33.1836 7.93164 32.2607 8.12207 31.4502 8.50293C30.6494 8.88379 29.9756 9.42578 29.4287 10.1289C28.8818 10.832 28.4668 11.6768 28.1836 12.6631C27.9004 13.6396 27.7588 14.7285 27.7588 15.9297V18.5371C27.7588 19.7871 27.915 20.915 28.2275 21.9209C28.5498 22.9268 29.0088 23.791 29.6045 24.5137C30.2002 25.2363 30.9131 25.793 31.7432 26.1836C32.5732 26.5645 33.4961 26.7549 34.5117 26.7549C35.5957 26.7549 36.5186 26.6523 37.2803 26.4473C38.042 26.2422 38.6523 25.998 39.1113 25.7148C39.5801 25.4219 39.917 25.1484 40.1221 24.8945V19.4014H34.3945V17.8633H41.9092ZM61.4062 16.2373V17.7754H48.4424V16.2373H61.4062ZM48.8672 6.67188V28H47.0654V6.67188H48.8672ZM62.8564 6.67188V28H61.0547V6.67188H62.8564ZM75.0146 6.67188V28H73.2275V6.67188H75.0146ZM82.3242 6.67188V8.22461H65.9326V6.67188H82.3242ZM98.3643 28H93.5303L93.5596 26.4619H98.3643C99.8975 26.4619 101.216 26.1201 102.319 25.4365C103.433 24.7432 104.292 23.7861 104.897 22.5654C105.503 21.3447 105.806 19.9287 105.806 18.3174V16.3252C105.806 15.0947 105.63 13.9814 105.278 12.9854C104.937 11.9893 104.443 11.1396 103.799 10.4365C103.154 9.72363 102.383 9.17676 101.484 8.7959C100.596 8.41504 99.5996 8.22461 98.4961 8.22461H93.4424V6.67188H98.4961C99.8242 6.67188 101.04 6.90137 102.144 7.36035C103.257 7.80957 104.219 8.46387 105.029 9.32324C105.85 10.1729 106.479 11.1934 106.919 12.3848C107.368 13.5762 107.593 14.9043 107.593 16.3691V18.3174C107.593 19.7822 107.368 21.1104 106.919 22.3018C106.479 23.4932 105.85 24.5137 105.029 25.3633C104.209 26.2129 103.237 26.8672 102.114 27.3262C100.991 27.7754 99.7412 28 98.3643 28ZM94.3359 6.67188V28H92.5342V6.67188H94.3359ZM113.525 14.7725V28H111.782V12.1504H113.481L113.525 14.7725ZM119.136 12.0332L119.092 13.6445C118.896 13.6152 118.706 13.5908 118.521 13.5713C118.335 13.5518 118.135 13.542 117.92 13.542C117.158 13.542 116.489 13.6836 115.913 13.9668C115.347 14.2402 114.868 14.626 114.478 15.124C114.087 15.6123 113.789 16.1885 113.584 16.8525C113.379 17.5068 113.262 18.21 113.232 18.9619L112.588 19.2109C112.588 18.1758 112.695 17.2139 112.91 16.3252C113.125 15.4365 113.452 14.6602 113.892 13.9961C114.341 13.3223 114.902 12.7998 115.576 12.4287C116.26 12.0479 117.061 11.8574 117.979 11.8574C118.203 11.8574 118.423 11.877 118.638 11.916C118.862 11.9453 119.028 11.9844 119.136 12.0332ZM123.838 12.1504V28H122.095V12.1504H123.838ZM121.787 7.56543C121.787 7.2334 121.89 6.95508 122.095 6.73047C122.31 6.49609 122.603 6.37891 122.974 6.37891C123.345 6.37891 123.638 6.49609 123.853 6.73047C124.077 6.95508 124.189 7.2334 124.189 7.56543C124.189 7.8877 124.077 8.16602 123.853 8.40039C123.638 8.625 123.345 8.7373 122.974 8.7373C122.603 8.7373 122.31 8.625 122.095 8.40039C121.89 8.16602 121.787 7.8877 121.787 7.56543ZM133.301 26.3154L138.384 12.1504H140.186L134.253 28H132.979L133.301 26.3154ZM128.701 12.1504L133.843 26.3594L134.121 28H132.832L126.885 12.1504H128.701ZM148.989 28.293C147.954 28.293 147.002 28.1025 146.133 27.7217C145.273 27.3408 144.521 26.8037 143.877 26.1104C143.242 25.417 142.749 24.5967 142.397 23.6494C142.056 22.6924 141.885 21.6475 141.885 20.5146V19.8848C141.885 18.6641 142.065 17.5605 142.427 16.5742C142.788 15.5879 143.286 14.7432 143.921 14.04C144.556 13.3369 145.278 12.7998 146.089 12.4287C146.909 12.0479 147.769 11.8574 148.667 11.8574C149.673 11.8574 150.566 12.0381 151.348 12.3994C152.129 12.751 152.783 13.2539 153.311 13.9082C153.848 14.5527 154.253 15.3193 154.526 16.208C154.8 17.0869 154.937 18.0586 154.937 19.123V20.1924H142.939V18.6982H153.193V18.4932C153.174 17.6045 152.993 16.7744 152.651 16.0029C152.319 15.2217 151.821 14.5869 151.157 14.0986C150.493 13.6104 149.663 13.3662 148.667 13.3662C147.925 13.3662 147.241 13.5225 146.616 13.835C146.001 14.1475 145.469 14.5967 145.02 15.1826C144.58 15.7588 144.238 16.4473 143.994 17.248C143.76 18.0391 143.643 18.918 143.643 19.8848V20.5146C143.643 21.3936 143.77 22.2139 144.023 22.9756C144.287 23.7275 144.658 24.3916 145.137 24.9678C145.625 25.5439 146.201 25.9932 146.865 26.3154C147.529 26.6377 148.262 26.7988 149.062 26.7988C150 26.7988 150.83 26.6279 151.553 26.2861C152.275 25.9346 152.925 25.3828 153.501 24.6309L154.6 25.4805C154.258 25.9883 153.828 26.457 153.311 26.8867C152.803 27.3164 152.192 27.6582 151.479 27.9121C150.767 28.166 149.937 28.293 148.989 28.293ZM160.137 14.7725V28H158.394V12.1504H160.093L160.137 14.7725ZM165.747 12.0332L165.703 13.6445C165.508 13.6152 165.317 13.5908 165.132 13.5713C164.946 13.5518 164.746 13.542 164.531 13.542C163.77 13.542 163.101 13.6836 162.524 13.9668C161.958 14.2402 161.479 14.626 161.089 15.124C160.698 15.6123 160.4 16.1885 160.195 16.8525C159.99 17.5068 159.873 18.21 159.844 18.9619L159.199 19.2109C159.199 18.1758 159.307 17.2139 159.521 16.3252C159.736 15.4365 160.063 14.6602 160.503 13.9961C160.952 13.3223 161.514 12.7998 162.188 12.4287C162.871 12.0479 163.672 11.8574 164.59 11.8574C164.814 11.8574 165.034 11.877 165.249 11.916C165.474 11.9453 165.64 11.9844 165.747 12.0332Z" fill="url(#paint0_linear_4708_42)"/>
<defs>
<linearGradient id="paint0_linear_4708_42" x1="83.5" y1="0" x2="83.5" y2="35" gradientUnits="userSpaceOnUse">
<stop offset="0.555" stop-color="#282828"/>
<stop offset="1" stop-color="white" stop-opacity="0"/>
</linearGradient>
</defs>
</svg>
